<svg width="30" height="30" viewBox="0 0 30 30" fill="none" xmlns="http://www.w3.org/2000/svg">
<path fill-rule="evenodd" clip-rule="evenodd" d="M15 1.87495C13.0109 1.87495 11.1032 2.66512 9.6967 4.07165C8.29018 5.47817 7.5 7.38582 7.5 9.37495C7.5 11.3641 8.29018 13.2717 9.6967 14.6782C11.1032 16.0848 13.0109 16.8749 15 16.8749C16.9891 16.8749 18.8968 16.0848 20.3033 14.6782C21.7098 13.2717 22.5 11.3641 22.5 9.37495C22.5 7.38582 21.7098 5.47817 20.3033 4.07165C18.8968 2.66512 16.9891 1.87495 15 1.87495V1.87495ZM5.625 9.37495C5.62502 7.56072 6.15145 5.78548 7.14043 4.26452C8.12941 2.74355 9.53845 1.54222 11.1967 0.806208C12.8549 0.0701986 14.6911 -0.168863 16.4825 0.118017C18.2739 0.404897 19.9435 1.20539 21.289 2.42242C22.6344 3.63945 23.5979 5.22072 24.0624 6.97445C24.527 8.72819 24.4727 10.579 23.9062 12.3026C23.3397 14.0261 22.2853 15.5482 20.8708 16.6843C19.4563 17.8204 17.7426 18.5216 15.9375 18.7031V22.4999H19.6875C19.9361 22.4999 20.1746 22.5987 20.3504 22.7745C20.5262 22.9503 20.625 23.1888 20.625 23.4374C20.625 23.6861 20.5262 23.9245 20.3504 24.1004C20.1746 24.2762 19.9361 24.3749 19.6875 24.3749H15.9375V29.0624C15.9375 29.3111 15.8387 29.5495 15.6629 29.7254C15.4871 29.9012 15.2486 29.9999 15 29.9999C14.7514 29.9999 14.5129 29.9012 14.3371 29.7254C14.1613 29.5495 14.0625 29.3111 14.0625 29.0624V24.3749H10.3125C10.0639 24.3749 9.8254 24.2762 9.64959 24.1004C9.47377 23.9245 9.375 23.6861 9.375 23.4374C9.375 23.1888 9.47377 22.9503 9.64959 22.7745C9.8254 22.5987 10.0639 22.4999 10.3125 22.4999H14.0625V18.7031C11.75 18.4707 9.60633 17.3876 8.04727 15.664C6.48822 13.9403 5.62497 11.6991 5.625 9.37495V9.37495Z" fill="#EDBBFF"/>
</svg>
