<svg width="40" height="40" viewBox="0 0 40 40" fill="none" xmlns="http://www.w3.org/2000/svg">
<path d="M16.6667 8.88889H26.6667V11.1111H16.6667V8.88889Z" fill="black"/>
<path d="M16.6667 13.3333H26.6667V15.5556H16.6667V13.3333Z" fill="black"/>
<path d="M16.6667 17.7778H26.6667V20H16.6667V17.7778Z" fill="black"/>
<path d="M16.6667 22.2222H26.6667V24.4445H16.6667V22.2222Z" fill="black"/>
<path d="M16.6667 26.6667H26.6667V28.8889H16.6667V26.6667Z" fill="black"/>
<path d="M12.2222 8.88889H14.4445V11.1111H12.2222V8.88889Z" fill="black"/>
<path d="M12.2222 13.3333H14.4445V15.5556H12.2222V13.3333Z" fill="black"/>
<path d="M12.2222 17.7778H14.4445V20H12.2222V17.7778Z" fill="black"/>
<path d="M12.2222 22.2222H14.4445V24.4445H12.2222V22.2222Z" fill="black"/>
<path d="M12.2222 26.6667H14.4445V28.8889H12.2222V26.6667Z" fill="black"/>
<path d="M31.1111 2.22223H8.88888C8.29951 2.22223 7.73428 2.45636 7.31753 2.8731C6.90078 3.28985 6.66666 3.85508 6.66666 4.44445V35.5556C6.66666 36.1449 6.90078 36.7102 7.31753 37.1269C7.73428 37.5437 8.29951 37.7778 8.88888 37.7778H31.1111C31.7005 37.7778 32.2657 37.5437 32.6824 37.1269C33.0992 36.7102 33.3333 36.1449 33.3333 35.5556V4.44445C33.3333 3.85508 33.0992 3.28985 32.6824 2.8731C32.2657 2.45636 31.7005 2.22223 31.1111 2.22223ZM31.1111 35.5556H8.88888V4.44445H31.1111V35.5556Z" fill="black"/>
</svg>
